<?xml version="1.0" encoding="UTF-8" standalone="no"?>
<!DOCTYPE svg PUBLIC "-//W3C//DTD SVG 1.1//EN" "http://www.w3.org/Graphics/SVG/1.1/DTD/svg11.dtd">
<svg width="100%" height="100%" viewBox="0 0 2221 1630" version="1.1" xmlns="http://www.w3.org/2000/svg" xmlns:xlink="http://www.w3.org/1999/xlink" xml:space="preserve" xmlns:serif="http://www.serif.com/" style="fill-rule:evenodd;clip-rule:evenodd;stroke-linejoin:round;stroke-miterlimit:2;">
    <g transform="matrix(6.66809,0,0,7.14878,-1887.07,-1143.8)">
        <path d="M616,168.208C616,163.678 612.057,160 607.2,160L291.8,160C286.943,160 283,163.678 283,168.208L283,379.792C283,384.322 286.943,388 291.8,388L607.2,388C612.057,388 616,384.322 616,379.792L616,168.208Z" style="fill:rgb(125,194,66);"/>
    </g>
    <g transform="matrix(1,0,0,1,-129.921,-48.5572)">
        <g transform="matrix(2.67109,0,0,0.430965,-542.997,1549.09)">
            <path d="M616,224.561C616,176.122 609.655,136.796 601.84,136.796L297.16,136.796C289.345,136.796 283,176.122 283,224.561L283,300.236L616,300.236L616,224.561Z" style="fill:white;"/>
        </g>
        <g transform="matrix(2.67109,0,0,0.430965,430.003,1549.09)">
            <path d="M686.383,224.561C686.383,176.122 680.038,136.796 672.223,136.796L297.16,136.796C289.345,136.796 283,176.122 283,224.561L283,300.236L686.383,300.236L686.383,224.561Z" style="fill:white;"/>
        </g>
    </g>
    <g transform="matrix(0.0999446,0,0,-0.0999446,-14.2354,1719.82)">
        <path d="M656,17074C489,17034 343,16895 284,16720C265,16666 265,16464 265,9065C265,2557 267,1458 279,1415C314,1292 394,1183 501,1111C580,1058 661,1034 788,1025L890,1018L890,1121C891,1331 918,1426 1005,1519C1058,1576 1111,1610 1185,1634C1232,1649 1565,1650 5445,1648L9655,1645L9722,1613C9826,1564 9906,1474 9943,1365C9948,1349 9956,1265 9959,1180L9965,1025L10605,1025L10611,1185C10616,1350 10623,1382 10668,1455C10719,1538 10799,1601 10894,1633C10940,1649 11325,1650 16094,1650C20630,1650 21251,1648 21294,1635C21444,1589 21554,1462 21580,1304C21586,1271 21590,1194 21590,1131L21590,1018L21698,1025C21827,1034 21906,1057 21986,1108C22099,1181 22181,1294 22214,1425C22228,1478 22230,2245 22230,9055C22230,15694 22228,16633 22215,16688C22171,16875 22016,17031 21829,17075C21772,17088 20594,17090 11240,17089C2184,17088 707,17086 656,17074ZM6668,16834C6681,16825 6698,16803 6706,16783C6733,16719 6702,16652 6634,16630C6523,16593 6437,16736 6520,16819C6564,16862 6616,16868 6668,16834ZM810,16701C824,16691 841,16665 849,16643C862,16607 861,16600 844,16564C831,16538 812,16519 786,16506C750,16489 743,16488 707,16501C655,16519 627,16557 627,16610C627,16706 729,16757 810,16701ZM21810,16701C21824,16691 21841,16665 21849,16643C21862,16607 21861,16600 21844,16564C21831,16538 21812,16519 21786,16506C21750,16489 21743,16488 21707,16501C21655,16519 21627,16557 21627,16608C21627,16706 21729,16757 21810,16701ZM5905,16440C6067,16416 6188,16316 6241,16162C6259,16109 6260,16063 6260,15138L6260,14170L890,14170L890,15098C890,15608 895,16053 900,16088C926,16270 1072,16417 1249,16440C1339,16452 5824,16451 5905,16440ZM21228,16440C21355,16422 21470,16346 21533,16237C21590,16141 21590,16140 21590,15113L21590,14170L6920,14170L6920,15128C6920,15894 6923,16095 6934,16135C6962,16241 7021,16323 7110,16380C7163,16414 7200,16427 7275,16439C7346,16451 21150,16452 21228,16440ZM4898,13588L4900,13170L5390,13170L5390,12150L4900,12150L4900,11500L5390,11500L5390,10480L4900,10480L4900,9840L5390,9840L5390,8820L4900,8820L4900,8170L5390,8170L5390,7150L4900,7150L4900,6510L5390,6510L5390,5490L4370,5490L4370,6330L3870,6330L3870,7350L4370,7350L4370,7980L4123,7982L3875,7985L3875,9005L4123,9008L4370,9010L4370,9650L4123,9652L3875,9655L3875,10675L4123,10678L4370,10680L4370,11320L3870,11320L3870,12340L4370,12340L4370,12980L4123,12982L3875,12985L3872,13485C3871,13760 3872,13991 3875,13998C3878,14008 3986,14010 4387,14008L4895,14005L4898,13588ZM10930,14010L10930,13170L11420,13170L11420,12150L10930,12150L10930,11500L11420,11500L11420,10480L10930,10480L10930,9840L11420,9840L11420,8820L10930,8820L10930,8170L11420,8170L11420,7150L10930,7150L10930,6510L11420,6510L11420,5490L10400,5490L10400,6330L9910,6330L9910,7350L10400,7350L10400,7980L9910,7980L9910,9010L10400,9010L10400,9650L9910,9650L9910,10680L10400,10680L10400,11320L9910,11320L9910,12340L10400,12340L10400,12980L9910,12980L9910,14010L10930,14010ZM15570,14010L15570,13170L16070,13170L16070,12150L15570,12150L15570,11500L16070,11500L16070,10480L15570,10480L15570,9840L16070,9840L16070,8820L15570,8820L15570,8170L16070,8170L16070,7150L15570,7150L15570,6510L16070,6510L16070,5490L15050,5490L15048,5908L15045,6325L14798,6328L14550,6330L14550,7350L15050,7350L15050,7980L14550,7980L14550,9010L15050,9010L15050,9650L14550,9650L14550,10680L15050,10680L15048,10998L15045,11315L14798,11318L14550,11320L14550,12340L14798,12342L15045,12345L15048,12663L15050,12980L14550,12980L14550,14010L15570,14010ZM20210,14010L20210,13170L20710,13170L20710,12150L20210,12150L20210,11500L20710,11500L20710,10480L20210,10480L20210,9840L20710,9840L20710,8820L20210,8820L20210,8170L20710,8170L20710,7150L20210,7150L20210,6510L20710,6510L20710,5490L19690,5490L19690,6330L19190,6330L19190,7350L19690,7350L19690,7980L19190,7980L19190,9010L19690,9010L19690,9650L19190,9650L19190,10680L19690,10680L19690,11320L19190,11320L19190,12340L19690,12340L19690,12980L19190,12980L19190,14010L20210,14010ZM2100,14000L2100,13342L1608,13335C1337,13332 1066,13330 1005,13332L895,13335L892,13668L890,14000L2100,14000ZM3280,14000L3280,12980L2790,12980L2790,12330L3280,12330L3280,11310L2790,11310L2790,10670L3280,10670L3280,9650L2790,9650L2790,8820L1770,8820L1770,9840L2260,9840L2260,10480L1770,10480L1770,11510L2260,11510L2260,12150L1770,12150L1770,13170L2260,13170L2260,14000L3280,14000ZM3710,14000L3710,13329L3578,13332L3445,13335L3442,13668L3440,14000L3710,14000ZM6260,14000L6260,13330L5060,13330L5060,14000L6260,14000ZM8130,14000L8130,13343L7763,13337C7560,13333 7288,13330 7158,13330L6920,13330L6920,14000L8130,14000ZM9320,14000L9320,12980L8820,12980L8820,12330L9320,12330L9318,11823L9315,11315L9068,11312L8820,11310L8820,10480L7800,10480L7800,11510L8300,11510L8298,11828L8295,12145L8048,12148L7800,12150L7800,13170L8048,13172L8295,13175L8298,13588L8300,14000L9320,14000ZM9748,13668L9745,13335L9613,13332L9480,13329L9480,14000L9750,14000L9748,13668ZM12770,14000L12770,13343L12403,13337C12200,13333 11822,13330 11563,13330L11090,13330L11090,14000L12770,14000ZM13960,14000L13960,12980L13460,12980L13462,12658L13465,12335L13713,12332L13960,12330L13960,11310L13460,11310L13460,10480L12440,10480L12440,11510L12940,11510L12940,12150L12440,12150L12440,13170L12940,13170L12940,14000L13960,14000ZM14390,14000L14390,13330L14120,13330L14120,14000L14390,14000ZM17420,14000L17420,13343L17043,13337C16836,13333 16456,13330 16198,13330L15730,13330L15730,14000L17420,14000ZM18600,14000L18600,12980L18100,12980L18102,12658L18105,12335L18353,12332L18600,12330L18600,11310L18100,11310L18100,10480L17593,10482L17085,10485L17082,10998L17080,11510L17580,11510L17580,12150L17080,12150L17080,13170L17580,13170L17580,14000L18600,14000ZM19030,14000L19030,13330L18760,13330L18760,14000L19030,14000ZM21590,14000L21590,13330L20983,13332L20375,13335L20372,13668L20370,14000L21590,14000ZM1600,13170L1600,12510L890,12510L890,12833C890,13011 893,13160 897,13163C900,13167 1060,13170 1252,13170L1600,13170ZM3710,13170L3710,12820L4220,12820L4220,12510L2950,12510L2950,12820L3440,12820L3440,12988C3440,13081 3443,13160 3447,13163C3450,13167 3511,13170 3582,13170L3710,13170ZM6260,13170L6260,12510L5570,12510L5570,13170L6260,13170ZM7640,13170L7640,12510L6920,12510L6920,13170L7640,13170ZM9748,12993L9750,12820L10260,12820L10260,12510L8979,12510L8982,12663L8985,12815L9233,12818L9480,12820L9480,13171L9613,13168L9745,13165L9748,12993ZM12280,13170L12280,12510L11600,12510L11600,13170L12280,13170ZM14390,13170L14390,12820L14900,12820L14900,12510L13619,12510L13622,12663L13625,12815L13873,12818L14120,12820L14120,13170L14390,13170ZM16920,13170L16920,12510L16240,12510L16240,12833C16240,13011 16243,13160 16247,13163C16250,13167 16403,13170 16587,13170L16920,13170ZM19030,13170L19030,12820L19540,12820L19540,12510L18270,12510L18270,12820L18760,12820L18760,13170L19030,13170ZM21590,13170L21590,12510L20890,12510L20890,13170L21590,13170ZM1600,12340L1600,11990L2100,11990L2100,11680L890,11680L890,12340L1600,12340ZM3710,12340L3710,11680L3440,11680L3440,12340L3710,12340ZM6260,12340L6260,11680L5060,11680L5060,11980L5313,11982L5565,11985L5568,12163L5570,12340L6260,12340ZM7640,12340L7640,11990L8130,11990L8130,11680L6920,11680L6920,12340L7640,12340ZM9750,12340L9750,11680L9480,11680L9480,12340L9750,12340ZM12280,12340L12280,11990L12770,11990L12770,11680L11090,11680L11090,11980L11600,11980L11600,12340L12280,12340ZM14390,12340L14390,11680L14120,11680L14120,12340L14390,12340ZM16920,12340L16920,11990L17168,11988L17415,11985L17418,11833L17421,11680L15730,11680L15730,11980L16240,11980L16240,12340L16920,12340ZM19030,12340L19030,11680L18760,11680L18760,12340L19030,12340ZM21590,12340L21590,11680L20370,11680L20370,11980L20628,11982L20885,11985L20888,12163L20890,12340L21590,12340ZM1590,11510L1590,10840L890,10840L890,11510L1590,11510ZM3710,11510L3710,11160L4220,11160L4220,10840L2930,10840L2930,11150L3440,11150L3440,11510L3710,11510ZM6260,11510L6260,10840L5570,10840L5570,11510L6260,11510ZM7620,11510L7620,10840L6920,10840L6920,11510L7620,11510ZM9750,11510L9750,11160L10260,11160L10260,10840L8970,10840L8970,11150L9480,11150L9480,11510L9750,11510ZM12260,11510L12260,10840L11600,10840L11600,11510L12260,11510ZM14390,11510L14390,11160L14900,11160L14900,10840L13610,10840L13610,11150L14120,11150L14120,11510L14390,11510ZM16900,11510L16900,10840L16240,10840L16240,11510L16900,11510ZM19030,11510L19030,11160L19540,11160L19540,10840L18250,10840L18250,11150L18760,11150L18760,11510L19030,11510ZM21590,11510L21590,10840L20890,10840L20890,11510L21590,11510ZM1590,10670L1590,10320L2100,10320L2100,10010L890,10010L890,10670L1590,10670ZM3700,10670L3700,10010L3440,10010L3440,10670L3700,10670ZM6260,10670L6260,10010L5040,10010L5040,10320L5570,10320L5570,10670L6260,10670ZM7620,10670L7620,10320L8293,10322L8965,10325L8968,10498L8970,10670L9730,10670L9730,10010L6920,10010L6920,10670L7620,10670ZM12262,10498L12265,10325L12938,10322L13610,10320L13610,10670L14370,10670L14370,10010L11080,10010L11080,10320L11600,10320L11600,10670L12260,10670L12262,10498ZM16902,10498L16905,10325L17578,10322L18250,10320L18250,10670L19010,10670L19010,10010L15720,10010L15720,10320L16240,10320L16240,10670L16900,10670L16902,10498ZM21590,10670L21590,10010L20360,10010L20360,10320L20623,10322L20885,10325L20888,10498L20890,10670L21590,10670ZM1590,9840L1590,9170L890,9170L890,9840L1590,9840ZM3700,9840L3700,9490L4210,9490L4210,9170L2929,9170L2932,9328L2935,9485L3188,9488L3440,9490L3440,9840L3700,9840ZM6260,9840L6260,9170L5550,9170L5550,9840L6260,9840ZM9730,9840L9730,9490L10240,9490L10240,9170L6920,9170L6920,9840L9730,9840ZM14370,9840L14370,9490L14880,9490L14880,9170L11590,9170L11590,9840L14370,9840ZM19010,9840L19010,9490L19520,9490L19520,9170L16230,9170L16230,9840L19010,9840ZM21590,9840L21590,9170L20870,9170L20870,9840L21590,9840ZM1590,9000L1590,8660L2930,8660L2930,9000L3700,9000L3700,8340L890,8340L890,9000L1590,9000ZM6260,9000L6260,8340L5040,8340L5040,8650L5550,8650L5550,9000L6260,9000ZM9730,9000L9730,8340L6920,8340L6920,9000L9730,9000ZM14370,9000L14370,8340L11080,8340L11080,8650L11333,8652L11585,8655L11588,8828L11590,9000L14370,9000ZM19010,9000L19010,8340L15720,8340L15720,8650L15973,8652L16225,8655L16228,8828L16230,9000L19010,9000ZM21590,9000L21590,8340L20360,8340L20360,8650L20613,8652L20865,8655L20868,8828L20870,9000L21590,9000ZM3700,8170L3700,7820L4220,7820L4220,7550L890,7550L890,8170L3700,8170ZM6260,8170L6260,7550L5570,7550L5570,8170L6260,8170ZM9730,8170L9730,7820L10260,7820L10260,7550L6920,7550L6920,8170L9730,8170ZM14370,8170L14370,7820L14900,7820L14900,7550L11600,7550L11600,8170L14370,8170ZM19012,7998L19015,7825L19278,7822L19540,7820L19540,7550L16240,7550L16240,8170L19010,8170L19012,7998ZM21590,8170L21590,7550L20890,7550L20890,8170L21590,8170ZM3700,7380L3700,6680L890,6680L890,7380L3700,7380ZM6260,7380L6260,6680L5039,6680L5042,6833L5045,6985L5308,6988L5570,6990L5570,7380L6260,7380ZM9730,7380L9730,6680L6920,6680L6920,7380L9730,7380ZM14370,7380L14370,6680L11080,6680L11080,6990L11600,6990L11600,7380L14370,7380ZM19010,7380L19010,6680L15720,6680L15720,6990L16240,6990L16240,7380L19010,7380ZM21590,7380L21590,6680L20360,6680L20360,6990L20890,6990L20890,7380L21590,7380ZM3700,6510L3700,6170L4220,6170L4220,5810L890,5810L890,6510L3700,6510ZM6260,6510L6260,5810L5570,5810L5570,6510L6260,6510ZM9730,6510L9730,6170L10260,6170L10260,5810L6920,5810L6920,6510L9730,6510ZM14370,6510L14370,6170L14900,6170L14900,5810L11600,5810L11600,6510L14370,6510ZM19010,6510L19010,6170L19540,6170L19540,5810L16240,5810L16240,6510L19010,6510ZM21590,6510L21590,5810L20890,5810L20890,6510L21590,6510ZM4220,5640L4220,5330L5570,5330L5570,5640L6260,5640L6260,5463C6260,5339 6256,5271 6246,5239C6205,5104 6118,5014 5975,4960C5915,4938 1327,4932 1220,4954C1095,4980 992,5061 939,5175C901,5255 890,5328 890,5503L890,5640L4220,5640ZM10260,5640L10260,5330L11600,5330L11600,5640L14900,5640L14900,5330L16240,5330L16240,5640L19540,5640L19540,5330L20890,5330L20890,5640L21592,5640L21588,5453C21584,5291 21580,5257 21561,5208C21519,5100 21432,5012 21322,4968L21265,4945L14300,4942C9890,4941 7312,4943 7272,4949C7107,4974 6976,5091 6934,5250C6925,5286 6920,5359 6920,5472L6920,5640L10260,5640ZM688,4744C701,4735 719,4712 727,4692C758,4618 702,4537 620,4537C566,4537 529,4565 512,4618C500,4655 500,4664 517,4697C549,4764 625,4785 688,4744ZM21928,4744C21941,4735 21959,4712 21967,4692C21980,4660 21981,4650 21969,4616C21925,4492 21747,4520 21747,4651C21747,4746 21847,4797 21928,4744ZM9607,4281C9729,4263 9830,4197 9897,4093C9961,3993 9961,3994 9958,3269L9955,2615L9932,2558C9890,2454 9806,2370 9702,2328L9645,2305L1205,2305L1138,2337C1004,2400 921,2512 900,2655C888,2743 887,3842 900,3928C923,4090 1042,4229 1190,4268C1215,4274 1246,4281 1260,4283C1315,4292 9548,4289 9607,4281ZM21301,4269C21414,4229 21517,4131 21563,4018C21585,3966 21585,3956 21588,3341C21590,2967 21587,2691 21581,2654C21555,2487 21440,2356 21281,2315C21201,2294 10993,2293 10915,2314C10795,2346 10701,2424 10647,2538L10615,2605L10612,3273C10609,4004 10609,3997 10669,4091C10732,4190 10842,4264 10953,4280C10982,4284 13311,4287 16130,4286C20820,4285 21259,4284 21301,4269ZM820,2175C869,2128 868,2059 818,2010C793,1985 780,1980 740,1980C700,1980 687,1985 662,2009C614,2057 613,2123 658,2174C698,2218 774,2219 820,2175ZM21807,2173C21864,2136 21872,2045 21823,1996C21760,1933 21656,1960 21631,2047C21618,2091 21628,2127 21662,2160C21686,2184 21700,2190 21736,2190C21761,2190 21792,2183 21807,2173ZM10368,2040C10421,1988 10413,1904 10351,1863C10233,1784 10108,1945 10212,2042C10236,2065 10251,2070 10290,2070C10330,2070 10343,2065 10368,2040Z" style="fill-rule:nonzero;"/>
    </g>
</svg>
