<?xml version="1.0" encoding="UTF-8" standalone="no"?>
<!DOCTYPE svg PUBLIC "-//W3C//DTD SVG 1.1//EN" "http://www.w3.org/Graphics/SVG/1.1/DTD/svg11.dtd">
<svg width="100%" height="100%" viewBox="0 0 2221 1630" version="1.1" xmlns="http://www.w3.org/2000/svg" xmlns:xlink="http://www.w3.org/1999/xlink" xml:space="preserve" xmlns:serif="http://www.serif.com/" style="fill-rule:evenodd;clip-rule:evenodd;stroke-linejoin:round;stroke-miterlimit:2;">
    <g transform="matrix(6.66809,0,0,7.14878,-1887.07,-1143.8)">
        <path d="M616,168.208C616,163.678 612.057,160 607.2,160L291.8,160C286.943,160 283,163.678 283,168.208L283,379.792C283,384.322 286.943,388 291.8,388L607.2,388C612.057,388 616,384.322 616,379.792L616,168.208Z" style="fill:rgb(125,194,66);"/>
    </g>
    <g transform="matrix(1,0,0,1,-129.921,-48.5572)">
        <g transform="matrix(2.67109,0,0,0.430965,-542.997,1549.09)">
            <path d="M616,224.561C616,176.122 609.655,136.796 601.84,136.796L297.16,136.796C289.345,136.796 283,176.122 283,224.561L283,300.236L616,300.236L616,224.561Z" style="fill:white;"/>
        </g>
        <g transform="matrix(2.67109,0,0,0.430965,430.003,1549.09)">
            <path d="M686.383,224.561C686.383,176.122 680.038,136.796 672.223,136.796L297.16,136.796C289.345,136.796 283,176.122 283,224.561L283,300.236L686.383,300.236L686.383,224.561Z" style="fill:white;"/>
        </g>
    </g>
    <g transform="matrix(0.0999446,0,0,-0.0999446,-14.2354,1719.82)">
        <path d="M656,17074C489,17034 343,16895 284,16720C265,16666 265,16464 265,9065C265,2557 267,1458 279,1415C314,1292 394,1183 501,1111C580,1058 661,1034 788,1025L890,1018L890,1121C891,1331 918,1426 1005,1519C1058,1576 1111,1610 1185,1634C1232,1649 1565,1650 5445,1648L9655,1645L9722,1613C9826,1564 9906,1474 9943,1365C9948,1349 9956,1265 9959,1180L9965,1025L10605,1025L10611,1185C10616,1350 10623,1382 10668,1455C10719,1538 10799,1601 10894,1633C10940,1649 11325,1650 16094,1650C20630,1650 21251,1648 21294,1635C21444,1589 21554,1462 21580,1304C21586,1271 21590,1194 21590,1131L21590,1018L21698,1025C21827,1034 21906,1057 21986,1108C22099,1181 22181,1294 22214,1425C22228,1478 22230,2245 22230,9055C22230,15694 22228,16633 22215,16688C22171,16875 22016,17031 21829,17075C21772,17088 20594,17090 11240,17089C2184,17088 707,17086 656,17074ZM6668,16834C6681,16825 6698,16803 6706,16783C6733,16719 6702,16652 6634,16630C6523,16593 6437,16736 6520,16819C6564,16862 6616,16868 6668,16834ZM810,16701C824,16691 841,16665 849,16643C862,16607 861,16600 844,16564C831,16538 812,16519 786,16506C750,16489 743,16488 707,16501C655,16519 627,16557 627,16610C627,16706 729,16757 810,16701ZM21810,16701C21824,16691 21841,16665 21849,16643C21862,16607 21861,16600 21844,16564C21831,16538 21812,16519 21786,16506C21750,16489 21743,16488 21707,16501C21655,16519 21627,16557 21627,16608C21627,16706 21729,16757 21810,16701ZM688,4744C701,4735 719,4712 727,4692C758,4618 702,4537 620,4537C566,4537 529,4565 512,4618C500,4655 500,4664 517,4697C549,4764 625,4785 688,4744ZM21928,4744C21941,4735 21959,4712 21967,4692C21980,4660 21981,4650 21969,4616C21925,4492 21747,4520 21747,4651C21747,4746 21847,4797 21928,4744ZM820,2175C869,2128 868,2059 818,2010C793,1985 780,1980 740,1980C700,1980 687,1985 662,2009C614,2057 613,2123 658,2174C698,2218 774,2219 820,2175ZM21807,2173C21864,2136 21872,2045 21823,1996C21760,1933 21656,1960 21631,2047C21618,2091 21628,2127 21662,2160C21686,2184 21700,2190 21736,2190C21761,2190 21792,2183 21807,2173ZM10368,2040C10421,1988 10413,1904 10351,1863C10233,1784 10108,1945 10212,2042C10236,2065 10251,2070 10290,2070C10330,2070 10343,2065 10368,2040Z" style="fill-rule:nonzero;"/>
    </g>
    <g transform="matrix(0.96516,0,0,0.900181,38.6804,51.7274)">
        <path d="M2019.68,299.012C2019.68,244.8 1978.63,200.787 1928.07,200.787L292.399,200.787C241.837,200.787 200.787,244.8 200.787,299.012L200.787,1319.1C200.787,1373.31 241.837,1417.32 292.399,1417.32L1928.07,1417.32C1978.63,1417.32 2019.68,1373.31 2019.68,1319.1L2019.68,299.012Z" style="fill:white;"/>
    </g>
</svg>
